<svg width="25" height="25" viewBox="0 0 25 25" fill="none" xmlns="http://www.w3.org/2000/svg">
<path d="M7.89062 24.4463L22.2682 17.3667C23.0642 17.0219 23.7479 16.4185 24.2299 15.6355C24.712 14.8524 24.9699 13.9261 24.9699 12.9777C24.9699 12.0293 24.712 11.103 24.2299 10.32C23.7479 9.5369 23.0642 8.93352 22.2682 8.58876L7.88942 1.49581C6.84681 0.950403 5.66564 0.824918 4.54874 1.1409C3.43184 1.45689 2.44892 2.19462 1.76877 3.22742C1.25698 4.0002 0.977722 4.93238 0.970684 5.89144C0.98497 7.06899 1.40346 8.19613 2.14081 9.04297L4.29384 11.6191C4.61238 11.9792 4.79085 12.4637 4.79085 12.9684C4.79085 13.4731 4.61238 13.9576 4.29384 14.3177L2.14081 16.8938C1.46128 17.6526 1.04992 18.6571 0.981635 19.7242C0.913349 20.7914 1.19268 21.8503 1.76877 22.7081C2.44828 23.7421 3.43104 24.4812 4.5482 24.7984C5.66536 25.1156 6.84718 24.9911 7.89062 24.4463Z" fill="white"/>
</svg>
