<svg width="34" height="34" viewBox="0 0 34 34" fill="none" xmlns="http://www.w3.org/2000/svg">
<path d="M12.4473 5.26363L7.28693 20.4361C6.96785 21.2428 6.91103 22.1529 7.12389 23.0475C7.33676 23.9421 7.80941 24.7794 8.48001 25.45C9.15062 26.1206 9.98796 26.5933 10.8825 26.8061C11.7771 27.019 12.6872 26.9622 13.4939 26.6431L28.6766 21.4913C29.7995 21.1397 30.7235 20.3932 31.2898 19.38C31.8562 18.3668 32.0295 17.1501 31.7802 15.9389C31.5956 15.0305 31.1339 14.1739 30.4608 13.4908C29.618 12.6682 28.5251 12.1671 27.4049 12.0897L24.0609 11.7906C23.581 11.7612 23.1122 11.5447 22.7553 11.1879C22.3985 10.831 22.1821 10.3622 22.1526 9.88232L21.8535 6.53832C21.7974 5.52127 21.3781 4.52015 20.6717 3.71726C19.9654 2.91438 19.0192 2.36315 18.0053 2.16397C16.7936 1.91329 15.5761 2.08557 14.5618 2.65122C13.5476 3.21686 12.7999 4.14057 12.4473 5.26363Z" fill="white"/>
</svg>
