<svg width="34" height="34" viewBox="0 0 34 34" fill="none" xmlns="http://www.w3.org/2000/svg">
<path d="M21.4932 28.6769L26.6536 13.5044C26.9727 12.6978 27.0295 11.7876 26.8166 10.8931C26.6038 9.9985 26.1311 9.16115 25.4605 8.49055C24.7899 7.81994 23.9526 7.3473 23.058 7.13443C22.1635 6.92156 21.2533 6.97839 20.4467 7.29747L5.2639 12.4493C4.141 12.8009 3.21705 13.5474 2.65072 14.5606C2.08439 15.5738 1.91102 16.7905 2.16037 18.0017C2.34493 18.91 2.80661 19.7666 3.47979 20.4498C4.32254 21.2723 5.41547 21.7734 6.53566 21.8508L9.87967 22.15C10.3596 22.1794 10.8284 22.3958 11.1852 22.7527C11.5421 23.1095 11.7585 23.5783 11.7879 24.0582L12.0871 27.4022C12.1431 28.4193 12.5625 29.4204 13.2688 30.2233C13.9751 31.0262 14.9214 31.5774 15.9353 31.7766C17.1469 32.0273 18.3645 31.855 19.3787 31.2893C20.393 30.7237 21.1406 29.8 21.4932 28.6769Z" fill="white"/>
</svg>
