<svg width="34" height="34" viewBox="0 0 34 34" fill="none" xmlns="http://www.w3.org/2000/svg">
<path d="M28.6769 12.4473L13.5044 7.28694C12.6978 6.96786 11.7876 6.91103 10.8931 7.1239C9.9985 7.33676 9.16115 7.80941 8.49055 8.48002C7.81994 9.15062 7.3473 9.98797 7.13443 10.8825C6.92156 11.7771 6.97839 12.6872 7.29747 13.4939L12.4493 28.6767C12.8009 29.7995 13.5474 30.7235 14.5606 31.2898C15.5738 31.8562 16.7905 32.0295 18.0017 31.7802C18.91 31.5956 19.7666 31.1339 20.4498 30.4608C21.2723 29.618 21.7734 28.5251 21.8508 27.4049L22.15 24.0609C22.1794 23.581 22.3958 23.1122 22.7527 22.7553C23.1095 22.3985 23.5783 22.1821 24.0582 22.1526L27.4022 21.8535C28.4193 21.7974 29.4204 21.3781 30.2233 20.6718C31.0262 19.9654 31.5774 19.0192 31.7766 18.0053C32.0273 16.7936 31.855 15.5761 31.2893 14.5618C30.7237 13.5476 29.8 12.7999 28.6769 12.4473Z" fill="white"/>
</svg>
