<svg width="25" height="25" viewBox="0 0 25 25" fill="none" xmlns="http://www.w3.org/2000/svg">
<path d="M1.49422 7.89063L8.57385 22.2682C8.91862 23.0642 9.522 23.7479 10.3051 24.23C11.0881 24.712 12.0144 24.9699 12.9628 24.9699C13.9112 24.9699 14.8375 24.712 15.6206 24.23C16.4036 23.7479 17.007 23.0642 17.3518 22.2682L24.4447 7.88943C24.9901 6.84682 25.1156 5.66564 24.7996 4.54875C24.4837 3.43185 23.7459 2.44892 22.7131 1.76877C21.9403 1.25699 21.0082 0.977725 20.0491 0.970688C18.8716 0.984974 17.7444 1.40347 16.8976 2.14081L14.3215 4.29384C13.9613 4.61239 13.4768 4.79086 12.9721 4.79086C12.4675 4.79086 11.983 4.61239 11.6228 4.29384L9.04672 2.14081C8.28792 1.46129 7.28348 1.04992 6.21631 0.981639C5.14915 0.913353 4.09026 1.19269 3.2325 1.76877C2.19846 2.44829 1.45934 3.43104 1.14213 4.5482C0.824917 5.66536 0.949412 6.84718 1.49422 7.89063Z" fill="white"/>
</svg>
