<svg width="25" height="25" viewBox="0 0 25 25" fill="none" xmlns="http://www.w3.org/2000/svg">
<path d="M18.0499 1.49423L3.67238 8.57386C2.87637 8.91863 2.19263 9.522 1.7106 10.3051C1.22856 11.0881 0.970684 12.0144 0.970684 12.9628C0.970684 13.9112 1.22856 14.8375 1.7106 15.6206C2.19263 16.4036 2.87637 17.007 3.67238 17.3518L18.0511 24.4447C19.0937 24.9901 20.2749 25.1156 21.3918 24.7996C22.5087 24.4837 23.4916 23.7459 24.1718 22.7131C24.6836 21.9404 24.9628 21.0082 24.9699 20.0491C24.9556 18.8716 24.5371 17.7444 23.7997 16.8976L21.6467 14.3215C21.3282 13.9613 21.1497 13.4768 21.1497 12.9721C21.1497 12.4675 21.3282 11.983 21.6467 11.6228L23.7997 9.04672C24.4793 8.28792 24.8906 7.28348 24.9589 6.21632C25.0272 5.14915 24.7479 4.09027 24.1718 3.2325C23.4923 2.19846 22.5095 1.45935 21.3923 1.14213C20.2752 0.824921 19.0934 0.949416 18.0499 1.49423Z" fill="white"/>
</svg>
