<svg width="34" height="34" viewBox="0 0 34 34" fill="none" xmlns="http://www.w3.org/2000/svg">
<path d="M5.26363 21.4932L20.4361 26.6536C21.2428 26.9727 22.1529 27.0295 23.0475 26.8167C23.942 26.6038 24.7794 26.1311 25.45 25.4605C26.1206 24.7899 26.5932 23.9526 26.8061 23.058C27.019 22.1635 26.9622 21.2533 26.6431 20.4467L21.4912 5.2639C21.1397 4.141 20.3932 3.21706 19.38 2.65073C18.3668 2.0844 17.1501 1.91102 15.9389 2.16038C15.0305 2.34493 14.1739 2.80662 13.4908 3.47979C12.6682 4.32255 12.1671 5.41548 12.0897 6.53566L11.7906 9.87967C11.7611 10.3596 11.5447 10.8284 11.1879 11.1852C10.831 11.5421 10.3622 11.7585 9.88232 11.7879L6.53831 12.0871C5.52127 12.1431 4.52014 12.5625 3.71726 13.2688C2.91437 13.9751 2.36315 14.9214 2.16397 15.9353C1.91328 17.1469 2.08556 18.3645 2.65121 19.3787C3.21686 20.393 4.14056 21.1406 5.26363 21.4932Z" fill="white"/>
</svg>
