<svg width="167" height="139" viewBox="0 0 167 139" fill="none" xmlns="http://www.w3.org/2000/svg">
<path d="M86.5565 104.133L106.326 132.416L106.329 132.413C107.513 134.107 107.252 136.56 105.747 137.892C105.109 138.456 104.349 138.729 103.596 138.727H61.2832C59.3678 138.727 57.8149 136.98 57.8149 134.825C57.8149 133.843 58.137 132.947 58.6689 132.261L78.4404 103.975L81.1635 106.383L78.4372 103.971C79.124 102.988 80.146 102.477 81.1772 102.481H83.7226C84.8932 102.481 85.9285 103.134 86.5565 104.133ZM96.4694 130.923L82.443 110.856L68.4168 130.923H96.4694Z" fill="#8BA2AD"/>
<path d="M3.46828 0H83.2368H163.005C164.921 0 166.474 1.74698 166.474 3.90178V106.382C166.474 108.537 164.921 110.284 163.005 110.284H83.2368H3.46828C1.55288 110.284 0 108.537 0 106.382V3.90178C0 1.74698 1.55288 0 3.46828 0ZM83.2368 7.80355H6.93658V102.48H83.2368H159.537V7.80355H83.2368Z" fill="#8BA2AD"/>
<path d="M49.9534 130.922C48.038 130.922 46.4851 132.669 46.4851 134.824C46.4851 136.978 48.038 138.725 49.9534 138.725H114.933C116.848 138.725 118.401 136.978 118.401 134.824C118.401 132.669 116.848 130.922 114.933 130.922H49.9534Z" fill="#8BA2AD"/>
<path d="M53.2767 63.4356C53.0897 63.4167 52.8287 63.4068 52.4908 63.4068C50.1091 63.4068 47.953 64.4928 46.3926 66.2482C44.8322 68.0036 43.8669 70.4294 43.8669 73.1085C43.8669 75.7878 44.8322 78.2135 46.3926 79.9688C47.953 81.7243 50.1091 82.8103 52.4908 82.8103H103.594C105.975 82.8103 108.132 81.7243 109.692 79.9688C111.252 78.2135 112.218 75.7878 112.218 73.1085C112.218 70.4294 111.252 68.0036 109.692 66.2482C108.132 64.4928 105.975 63.4068 103.594 63.4068C103.359 63.4068 103.204 63.4095 103.122 63.4144C103.018 63.4208 102.91 63.4298 102.8 63.4414C102.336 63.5309 101.844 63.48 101.376 63.2642C100.047 62.6513 99.411 60.9421 99.9558 59.4467L102.363 60.5566L99.9646 59.4478C100.295 58.5415 100.554 57.5698 100.734 56.5425C100.903 55.569 100.993 54.5523 100.993 53.502C100.993 49.1709 99.4322 45.2499 96.9097 42.412C94.3871 39.5742 90.9017 37.8187 87.0518 37.8187C84.3177 37.8187 81.7762 38.6943 79.6377 40.2077C77.4737 41.7392 75.7112 43.914 74.5666 46.4892C74.4441 46.8525 74.2549 47.1944 73.9986 47.4906C72.9967 48.6487 71.3497 48.6738 70.3203 47.5466L70.3252 47.5409C69.5372 46.6781 68.5974 45.9815 67.5528 45.504C66.556 45.0484 65.4603 44.7972 64.3064 44.7972C61.9248 44.7972 59.7686 45.8832 58.2083 47.6385C56.6479 49.394 55.6827 51.8197 55.6827 54.499C55.6827 55.3763 55.7775 56.2035 55.9556 56.9694C56.1293 57.7167 56.3902 58.4438 56.7262 59.1365C57.0579 59.7331 57.2002 60.4654 57.0791 61.2122C56.8213 62.8021 55.4665 63.8557 54.0532 63.5656L54.055 63.5544C53.7996 63.5023 53.5399 63.4622 53.2767 63.4356ZM50.7768 57.6729C50.5826 56.6336 50.4804 55.5714 50.4804 54.499C50.4804 50.2041 52.0281 46.3154 54.5301 43.5006C57.032 40.6859 60.4886 38.9447 64.3064 38.9447C66.1393 38.9447 67.8942 39.3501 69.5037 40.0858C70.157 40.3845 70.7861 40.7388 71.3862 41.1432C72.8503 38.7965 74.7177 36.7955 76.8739 35.2696C79.8311 33.1769 83.3214 31.9662 87.0518 31.9662C92.3378 31.9662 97.1237 34.3769 100.588 38.2741C104.052 42.1712 106.195 47.5553 106.195 53.502C106.195 54.9153 106.071 56.3068 105.834 57.6625L105.818 57.7548C108.745 58.2875 111.364 59.8536 113.37 62.1103C115.872 64.9249 117.42 68.8137 117.42 73.1085C117.42 77.4034 115.872 81.2921 113.37 84.1068C110.868 86.9215 107.411 88.6628 103.594 88.6628H52.4907C48.6729 88.6628 45.2163 86.9216 42.7144 84.1068C40.2123 81.2921 38.6646 77.4034 38.6646 73.1085C38.6646 68.8137 40.2122 64.9249 42.7144 62.1103C44.836 59.7233 47.6442 58.1087 50.7768 57.6729Z" fill="#8BA2AD"/>
<path d="M107.387 59.2109C106.119 59.9557 105.627 61.7164 106.29 63.1431C106.952 64.5698 108.517 65.1225 109.785 64.3776C111.217 63.5366 112.548 62.4705 113.729 61.1948C114.877 59.9564 115.888 58.5201 116.719 56.9003L114.473 55.4371L116.726 56.9003C116.77 56.8137 116.81 56.7254 116.846 56.6362C119.116 52.0594 119.564 46.8852 118.445 42.1876C117.304 37.3962 114.538 33.094 110.417 30.4173C107.004 28.2006 103.195 27.4473 99.5662 27.9839C95.855 28.5327 92.3308 30.4332 89.608 33.4991C88.5979 34.6417 88.6025 36.4893 89.6181 37.6257C90.6337 38.7621 92.2761 38.7569 93.2862 37.6143C95.1846 35.4767 97.6445 34.1512 100.237 33.7678C102.77 33.3933 105.43 33.9202 107.815 35.4697C110.695 37.34 112.628 40.347 113.426 43.6965C114.208 46.9788 113.903 50.5846 112.336 53.7694C112.296 53.8352 112.257 53.9035 112.221 53.974L112.226 53.9775C111.64 55.118 110.932 56.1249 110.133 56.9883C109.301 57.8868 108.374 58.6311 107.387 59.2109Z" fill="#8BA2AD"/>
<path d="M118.015 21.444C118.733 20.0488 118.31 18.2626 117.07 17.4546C115.83 16.6466 114.242 17.1225 113.524 18.5177L110.652 24.1136C109.934 25.5088 110.357 27.2949 111.597 28.1029C112.837 28.911 114.425 28.435 115.143 27.0399L118.015 21.444Z" fill="#8BA2AD"/>
<path d="M97.0756 16.086C96.7053 14.5266 95.2813 13.6004 93.8952 14.017C92.5091 14.4336 91.6858 16.0356 92.0561 17.5949L93.5427 23.8363C93.913 25.3956 95.337 26.3218 96.7231 25.9052C98.1091 25.4886 98.9325 23.8867 98.5622 22.3273L97.0756 16.086Z" fill="#8BA2AD"/>
<path d="M124.706 65.4474C125.946 66.2491 127.53 65.7681 128.242 64.3729C128.955 62.9778 128.527 61.1966 127.287 60.395L122.313 57.1643C121.073 56.3626 119.49 56.8435 118.777 58.2387C118.064 59.6339 118.492 61.415 119.732 62.2167L124.706 65.4474Z" fill="#8BA2AD"/>
<path d="M129.459 41.8914C130.845 41.4748 131.668 39.8728 131.298 38.3135C130.928 36.7542 129.504 35.8279 128.118 36.2445L122.57 37.9171C121.183 38.3337 120.36 39.9356 120.73 41.495C121.101 43.0543 122.525 43.9805 123.911 43.5639L129.459 41.8914Z" fill="#8BA2AD"/>
<path d="M24.955 98H23.245V94.967C23.245 94.637 23.194 94.406 23.092 94.274C22.99 94.142 22.807 94.076 22.543 94.076C22.357 94.076 22.174 94.112 21.994 94.184C21.814 94.25 21.601 94.385 21.355 94.589V97.325L22.165 97.64L21.985 98H20.275V94.967C20.275 94.637 20.224 94.406 20.122 94.274C20.02 94.142 19.837 94.076 19.573 94.076C19.387 94.076 19.204 94.112 19.024 94.184C18.844 94.25 18.631 94.385 18.385 94.589V97.325L19.195 97.64L19.015 98H16.504V97.721L17.305 97.091V94.544L16.504 94.076V93.797L18.043 93.041L18.331 94.193L19.528 93.194C19.654 93.146 19.819 93.122 20.023 93.122C20.371 93.122 20.659 93.218 20.887 93.41C21.115 93.596 21.259 93.854 21.319 94.184L22.489 93.203C22.615 93.155 22.78 93.131 22.984 93.131C23.392 93.131 23.716 93.257 23.956 93.509C24.196 93.755 24.316 94.091 24.316 94.517V97.325L25.135 97.64L24.955 98ZM30.5356 98H28.8256V97.217L27.8086 98.018C27.6886 98.066 27.5386 98.09 27.3586 98.09C26.8426 98.09 26.4676 97.961 26.2336 97.703C26.0056 97.445 25.8916 97.136 25.8916 96.776C25.8916 96.56 25.9696 96.347 26.1256 96.137C26.2816 95.927 26.5036 95.729 26.7916 95.543H28.8256V94.967C28.8256 94.577 28.7206 94.301 28.5106 94.139C28.3066 93.977 28.0246 93.896 27.6646 93.896C27.2926 93.896 26.8366 94.121 26.2966 94.571L26.0266 94.229L27.3226 93.203C27.5626 93.155 27.8506 93.131 28.1866 93.131C28.7326 93.131 29.1556 93.266 29.4556 93.536C29.7556 93.8 29.9056 94.187 29.9056 94.697V97.325L30.7156 97.64L30.5356 98ZM27.6466 97.325C28.0126 97.325 28.4056 97.157 28.8256 96.821V95.912H27.2326C27.1546 96.008 27.0976 96.104 27.0616 96.2C27.0316 96.296 27.0166 96.401 27.0166 96.515C27.0166 96.737 27.0736 96.929 27.1876 97.091C27.3016 97.247 27.4546 97.325 27.6466 97.325ZM36.8724 98H35.1624V97.352L34.3254 98.018C34.1334 98.066 33.9024 98.09 33.6324 98.09C33.2364 98.09 32.8794 97.988 32.5614 97.784C32.2494 97.574 32.0034 97.292 31.8234 96.938C31.6494 96.584 31.5624 96.194 31.5624 95.768C31.5624 95.306 31.7034 94.874 31.9854 94.472C32.2674 94.064 32.6184 93.74 33.0384 93.5C33.4644 93.254 33.8754 93.131 34.2714 93.131C34.6014 93.131 34.9014 93.224 35.1714 93.41V91.556L34.3704 90.998V90.719L35.9094 90.143H36.2514V97.325L37.0524 97.64L36.8724 98ZM34.0914 97.325C34.2714 97.325 34.4424 97.301 34.6044 97.253C34.7724 97.199 34.9584 97.1 35.1624 96.956V94.904C35.1264 94.604 34.9854 94.361 34.7394 94.175C34.4994 93.983 34.1694 93.887 33.7494 93.887C33.0714 93.887 32.7324 94.37 32.7324 95.336C32.7324 95.9 32.8494 96.374 33.0834 96.758C33.3174 97.136 33.6534 97.325 34.0914 97.325ZM40.8511 98.018C40.6111 98.066 40.3231 98.09 39.9871 98.09C39.5911 98.09 39.2341 97.988 38.9161 97.784C38.6041 97.574 38.3581 97.292 38.1781 96.938C38.0041 96.584 37.9171 96.194 37.9171 95.768C37.9171 95.306 38.0581 94.874 38.3401 94.472C38.6221 94.064 38.9731 93.74 39.3931 93.5C39.8191 93.254 40.2301 93.131 40.6261 93.131C41.1961 93.131 41.6371 93.356 41.9491 93.806C42.2671 94.256 42.4261 94.85 42.4261 95.588H39.0961C39.1321 96.098 39.2701 96.515 39.5101 96.839C39.7561 97.163 40.0891 97.325 40.5091 97.325C40.8991 97.325 41.4541 97.022 42.1741 96.416L42.4441 96.758L40.8511 98.018ZM40.1041 93.887C39.4561 93.887 39.1171 94.331 39.0871 95.219H41.1931C41.1391 94.895 41.0821 94.649 41.0221 94.481C40.9681 94.307 40.8691 94.166 40.7251 94.058C40.5871 93.944 40.3801 93.887 40.1041 93.887ZM50.768 98H49.058V97.217L48.041 98.018C47.921 98.066 47.771 98.09 47.591 98.09C47.075 98.09 46.7 97.961 46.466 97.703C46.238 97.445 46.124 97.136 46.124 96.776C46.124 96.56 46.202 96.347 46.358 96.137C46.514 95.927 46.736 95.729 47.024 95.543H49.058V94.967C49.058 94.577 48.953 94.301 48.743 94.139C48.539 93.977 48.257 93.896 47.897 93.896C47.525 93.896 47.069 94.121 46.529 94.571L46.259 94.229L47.555 93.203C47.795 93.155 48.083 93.131 48.419 93.131C48.965 93.131 49.388 93.266 49.688 93.536C49.988 93.8 50.138 94.187 50.138 94.697V97.325L50.948 97.64L50.768 98ZM47.879 97.325C48.245 97.325 48.638 97.157 49.058 96.821V95.912H47.465C47.387 96.008 47.33 96.104 47.294 96.2C47.264 96.296 47.249 96.401 47.249 96.515C47.249 96.737 47.306 96.929 47.42 97.091C47.534 97.247 47.687 97.325 47.879 97.325ZM57.2398 98.009H55.5298V94.976C55.5298 94.646 55.4788 94.415 55.3768 94.283C55.2748 94.151 55.0918 94.085 54.8278 94.085C54.6298 94.085 54.4318 94.121 54.2338 94.193C54.0418 94.265 53.8138 94.403 53.5498 94.607V97.334L54.3598 97.649L54.1798 98.009H51.6688V97.73L52.4698 97.1V94.553L51.6688 94.085V93.806L53.2078 93.05L53.5048 94.22L54.7828 93.203C54.9088 93.155 55.0738 93.131 55.2778 93.131C55.6858 93.131 56.0098 93.257 56.2498 93.509C56.4898 93.755 56.6098 94.091 56.6098 94.517V97.325L57.4198 97.649L57.2398 98.009ZM63.5736 98H61.8636V97.352L61.0266 98.018C60.8346 98.066 60.6036 98.09 60.3336 98.09C59.9376 98.09 59.5806 97.988 59.2626 97.784C58.9506 97.574 58.7046 97.292 58.5246 96.938C58.3506 96.584 58.2636 96.194 58.2636 95.768C58.2636 95.306 58.4046 94.874 58.6866 94.472C58.9686 94.064 59.3196 93.74 59.7396 93.5C60.1656 93.254 60.5766 93.131 60.9726 93.131C61.3026 93.131 61.6026 93.224 61.8726 93.41V91.556L61.0716 90.998V90.719L62.6106 90.143H62.9526V97.325L63.7536 97.64L63.5736 98ZM60.7926 97.325C60.9726 97.325 61.1436 97.301 61.3056 97.253C61.4736 97.199 61.6596 97.1 61.8636 96.956V94.904C61.8276 94.604 61.6866 94.361 61.4406 94.175C61.2006 93.983 60.8706 93.887 60.4506 93.887C59.7726 93.887 59.4336 94.37 59.4336 95.336C59.4336 95.9 59.5506 96.374 59.7846 96.758C60.0186 97.136 60.3546 97.325 60.7926 97.325ZM69.778 98.099C69.454 98.099 69.154 98 68.878 97.802V99.548L70.138 99.935L69.958 100.295H66.997V100.016L67.798 99.386V94.553L66.997 94.085V93.806L68.536 93.05L68.833 94.22L70.12 93.203C70.312 93.155 70.531 93.131 70.777 93.131C71.101 93.131 71.392 93.236 71.65 93.446C71.914 93.65 72.118 93.929 72.262 94.283C72.412 94.637 72.487 95.027 72.487 95.453C72.487 95.915 72.346 96.35 72.064 96.758C71.782 97.16 71.428 97.484 71.002 97.73C70.582 97.97 70.174 98.09 69.778 98.09V98.099ZM70.318 93.995C70.09 93.995 69.868 94.04 69.652 94.13C69.436 94.22 69.178 94.397 68.878 94.661V96.182C68.878 96.512 69.001 96.788 69.247 97.01C69.493 97.232 69.844 97.343 70.3 97.343C70.978 97.343 71.317 96.86 71.317 95.894C71.317 95.36 71.23 94.91 71.056 94.544C70.882 94.178 70.636 93.995 70.318 93.995ZM76.4591 93.131C76.8551 93.131 77.2091 93.236 77.5211 93.446C77.8391 93.65 78.0851 93.929 78.2591 94.283C78.4391 94.637 78.5291 95.027 78.5291 95.453C78.5291 95.915 78.3881 96.35 78.1061 96.758C77.8241 97.16 77.4701 97.484 77.0441 97.73C76.6241 97.97 76.2161 98.09 75.8201 98.09C75.4241 98.09 75.0671 97.988 74.7491 97.784C74.4371 97.574 74.1911 97.292 74.0111 96.938C73.8371 96.584 73.7501 96.194 73.7501 95.768C73.7501 95.306 73.8911 94.874 74.1731 94.472C74.4551 94.064 74.8061 93.74 75.2261 93.5C75.6521 93.254 76.0631 93.131 76.4591 93.131ZM75.9371 93.887C75.2591 93.887 74.9201 94.37 74.9201 95.336C74.9201 95.906 75.0431 96.383 75.2891 96.767C75.5351 97.145 75.8861 97.334 76.3421 97.334C77.0201 97.334 77.3591 96.848 77.3591 95.876C77.3591 95.312 77.2361 94.841 76.9901 94.463C76.7441 94.079 76.3931 93.887 75.9371 93.887ZM86.9252 93.5L84.9182 98H84.2342L83.2982 95.705L82.1372 98H81.4532L80.0492 94.571L79.2122 94.085V93.806L80.7512 93.05L81.0932 94.409L82.1912 97.082L83.0732 95.183L82.8212 94.571L81.9842 94.085V93.806L83.5232 93.05L83.8652 94.409L84.9362 97.01L86.0162 94.49L84.7652 93.581L84.9452 93.221H86.9252V93.5ZM90.5445 98.018C90.3045 98.066 90.0165 98.09 89.6805 98.09C89.2845 98.09 88.9275 97.988 88.6095 97.784C88.2975 97.574 88.0515 97.292 87.8715 96.938C87.6975 96.584 87.6105 96.194 87.6105 95.768C87.6105 95.306 87.7515 94.874 88.0335 94.472C88.3155 94.064 88.6665 93.74 89.0865 93.5C89.5125 93.254 89.9235 93.131 90.3195 93.131C90.8895 93.131 91.3305 93.356 91.6425 93.806C91.9605 94.256 92.1195 94.85 92.1195 95.588H88.7895C88.8255 96.098 88.9635 96.515 89.2035 96.839C89.4495 97.163 89.7825 97.325 90.2025 97.325C90.5925 97.325 91.1475 97.022 91.8675 96.416L92.1375 96.758L90.5445 98.018ZM89.7975 93.887C89.1495 93.887 88.8105 94.331 88.7805 95.219H90.8865C90.8325 94.895 90.7755 94.649 90.7155 94.481C90.6615 94.307 90.5625 94.166 90.4185 94.058C90.2805 93.944 90.0735 93.887 89.7975 93.887ZM96.5077 93.14C96.7057 93.14 96.8797 93.194 97.0297 93.302C97.1797 93.41 97.2967 93.56 97.3807 93.752L96.7867 94.499H96.4447C96.4207 94.349 96.3757 94.244 96.3097 94.184C96.2497 94.118 96.1657 94.085 96.0577 94.085C95.9257 94.085 95.7847 94.121 95.6347 94.193C95.4907 94.259 95.3257 94.388 95.1397 94.58V97.262L96.3997 97.649L96.2197 98.009H93.2587V97.73L94.0597 97.1V94.553L93.2587 94.085V93.806L94.7977 93.05L95.0767 94.157L96.0127 93.203C96.1387 93.155 96.3037 93.131 96.5077 93.131V93.14ZM100.995 98.018C100.755 98.066 100.467 98.09 100.131 98.09C99.7347 98.09 99.3777 97.988 99.0597 97.784C98.7477 97.574 98.5017 97.292 98.3217 96.938C98.1477 96.584 98.0607 96.194 98.0607 95.768C98.0607 95.306 98.2017 94.874 98.4837 94.472C98.7657 94.064 99.1167 93.74 99.5367 93.5C99.9627 93.254 100.374 93.131 100.77 93.131C101.34 93.131 101.781 93.356 102.093 93.806C102.411 94.256 102.57 94.85 102.57 95.588H99.2397C99.2757 96.098 99.4137 96.515 99.6537 96.839C99.8997 97.163 100.233 97.325 100.653 97.325C101.043 97.325 101.598 97.022 102.318 96.416L102.588 96.758L100.995 98.018ZM100.248 93.887C99.5997 93.887 99.2607 94.331 99.2307 95.219H101.337C101.283 94.895 101.226 94.649 101.166 94.481C101.112 94.307 101.013 94.166 100.869 94.058C100.731 93.944 100.524 93.887 100.248 93.887ZM109.145 98H107.435V97.352L106.598 98.018C106.406 98.066 106.175 98.09 105.905 98.09C105.509 98.09 105.152 97.988 104.834 97.784C104.522 97.574 104.276 97.292 104.096 96.938C103.922 96.584 103.835 96.194 103.835 95.768C103.835 95.306 103.976 94.874 104.258 94.472C104.54 94.064 104.891 93.74 105.311 93.5C105.737 93.254 106.148 93.131 106.544 93.131C106.874 93.131 107.174 93.224 107.444 93.41V91.556L106.643 90.998V90.719L108.182 90.143H108.524V97.325L109.325 97.64L109.145 98ZM106.364 97.325C106.544 97.325 106.715 97.301 106.877 97.253C107.045 97.199 107.231 97.1 107.435 96.956V94.904C107.399 94.604 107.258 94.361 107.012 94.175C106.772 93.983 106.442 93.887 106.022 93.887C105.344 93.887 105.005 94.37 105.005 95.336C105.005 95.9 105.122 96.374 105.356 96.758C105.59 97.136 105.926 97.325 106.364 97.325ZM116.078 93.131C116.402 93.131 116.693 93.236 116.951 93.446C117.215 93.65 117.419 93.929 117.563 94.283C117.713 94.637 117.788 95.027 117.788 95.453C117.788 95.915 117.647 96.35 117.365 96.758C117.083 97.16 116.729 97.484 116.303 97.73C115.883 97.97 115.475 98.09 115.079 98.09C114.833 98.09 114.602 98.036 114.386 97.928C114.176 97.82 113.99 97.667 113.828 97.469L113.441 98H113.099V91.556L112.298 90.998V90.719L113.837 90.143H114.179V94.157L115.385 93.203C115.577 93.155 115.808 93.131 116.078 93.131ZM115.601 97.334C116.279 97.334 116.618 96.851 116.618 95.885C116.618 95.327 116.531 94.856 116.357 94.472C116.183 94.088 115.937 93.896 115.619 93.896C115.391 93.896 115.169 93.941 114.953 94.031C114.737 94.121 114.479 94.298 114.179 94.562V96.173C114.179 96.503 114.302 96.779 114.548 97.001C114.794 97.223 115.145 97.334 115.601 97.334ZM123.666 93.5L121.389 98L119.517 100.376L119.175 100.106C119.517 99.74 119.775 99.419 119.949 99.143C120.129 98.867 120.255 98.588 120.327 98.306C120.399 98.03 120.435 97.7 120.435 97.316L119.301 94.571L118.464 94.085V93.806L120.003 93.05L120.345 94.409L121.443 97.091L122.712 94.454L121.515 93.581L121.695 93.221H123.666V93.5ZM133.525 91.871L130.978 97.712L130.042 98.171L127.414 91.835L126.514 91.286L126.694 90.926H129.43V91.205L128.584 91.862L130.753 97.091L133.039 91.826L131.455 91.286L131.635 90.926H134.371V91.205L133.525 91.871ZM138.747 98H137.037V97.217L136.02 98.018C135.9 98.066 135.75 98.09 135.57 98.09C135.054 98.09 134.679 97.961 134.445 97.703C134.217 97.445 134.103 97.136 134.103 96.776C134.103 96.56 134.181 96.347 134.337 96.137C134.493 95.927 134.715 95.729 135.003 95.543H137.037V94.967C137.037 94.577 136.932 94.301 136.722 94.139C136.518 93.977 136.236 93.896 135.875 93.896C135.504 93.896 135.048 94.121 134.508 94.571L134.238 94.229L135.534 93.203C135.774 93.155 136.062 93.131 136.398 93.131C136.944 93.131 137.367 93.266 137.667 93.536C137.967 93.8 138.117 94.187 138.117 94.697V97.325L138.927 97.64L138.747 98ZM135.858 97.325C136.224 97.325 136.617 97.157 137.037 96.821V95.912H135.444C135.366 96.008 135.309 96.104 135.273 96.2C135.243 96.296 135.228 96.401 135.228 96.515C135.228 96.737 135.285 96.929 135.399 97.091C135.513 97.247 135.666 97.325 135.858 97.325ZM142.896 93.14C143.094 93.14 143.268 93.194 143.418 93.302C143.568 93.41 143.685 93.56 143.769 93.752L143.175 94.499H142.833C142.809 94.349 142.764 94.244 142.698 94.184C142.638 94.118 142.554 94.085 142.446 94.085C142.314 94.085 142.173 94.121 142.023 94.193C141.879 94.259 141.714 94.388 141.528 94.58V97.262L142.788 97.649L142.608 98.009H139.647V97.73L140.448 97.1V94.553L139.647 94.085V93.806L141.186 93.05L141.465 94.157L142.401 93.203C142.527 93.155 142.692 93.131 142.896 93.131V93.14ZM146.825 97.64L146.645 98H144.134V97.721L144.935 97.091V91.556L144.134 90.998V90.719L145.673 90.143H146.015V97.325L146.825 97.64ZM149.705 98H148.184L146.492 95.624L148.175 94.211L147.311 93.581L147.491 93.221H149.642V93.5L147.554 95.255L149.075 97.325L149.885 97.64L149.705 98Z" fill="#8BA2AD"/>
</svg>
