<svg width="130" height="130" viewBox="0 0 130 130" fill="none" xmlns="http://www.w3.org/2000/svg">
<g clip-path="url(#clip0_7_25)">
<path d="M93.3021 76.5104L130.146 65L93.3021 53.4896L108.669 21.3363L76.5158 36.7033L65 -0.140833L53.4896 36.7033L21.3308 21.3308L36.6979 53.4842L-0.140839 65L36.7033 76.5104L21.3362 108.664L53.4896 93.2967L65 130.141L76.5104 93.2967L108.664 108.664L93.3021 76.5104ZM97.1696 32.8304L88.075 51.8538L80.5079 49.4921L78.1462 41.925L97.1696 32.8304ZM32.8358 32.8304L51.8592 41.925L49.4975 49.4921L41.9304 51.8538L32.8358 32.8304ZM32.8358 97.1642L41.925 78.1408L49.4921 80.5025L51.8537 88.0696L32.8358 97.1642ZM53.8146 76.18L18.0212 65L53.8146 53.8146L65 18.0213L76.18 53.8146L111.973 65L76.18 76.18L65 111.973L53.8146 76.18ZM80.5133 80.5079L88.0804 78.1463L97.1696 97.1696L78.1462 88.0804L80.5079 80.5133L80.5133 80.5079ZM70.4221 65C70.4221 67.99 67.9954 70.4167 65.0054 70.4167C62.0154 70.4167 59.5887 67.99 59.5887 65C59.5887 62.01 62.0154 59.5833 65.0054 59.5833C67.9954 59.5833 70.4221 62.01 70.4221 65Z" fill="black"/>
<path d="M97.1696 32.8304L88.075 51.8538L80.5079 49.4921L78.1462 41.925L97.1696 32.8304Z" fill="black"/>
<path d="M97.1696 32.8304L88.075 51.8538L80.5079 49.4921L78.1462 41.925L97.1696 32.8304Z" fill="#FF0000"/>
<path d="M32.8358 97.1642L41.925 78.1408L49.4921 80.5025L51.8537 88.0696L32.8358 97.1642Z" fill="black"/>
<path d="M32.8358 97.1642L41.925 78.1408L49.4921 80.5025L51.8537 88.0696L32.8358 97.1642Z" fill="#FF0000"/>
<path d="M32.8358 32.8304L51.8592 41.925L49.4975 49.4921L41.9304 51.8538L32.8358 32.8304Z" fill="black"/>
<path d="M32.8358 32.8304L51.8592 41.925L49.4975 49.4921L41.9304 51.8538L32.8358 32.8304Z" fill="#0000FF"/>
<path d="M80.5133 80.5079L88.0804 78.1463L97.1696 97.1696L78.1462 88.0804L80.5079 80.5133L80.5133 80.5079Z" fill="black"/>
<path d="M80.5133 80.5079L88.0804 78.1463L97.1696 97.1696L78.1462 88.0804L80.5079 80.5133L80.5133 80.5079Z" fill="#0000FF"/>
<path fill-rule="evenodd" clip-rule="evenodd" d="M53.8146 76.18L18.0212 65L53.8146 53.8146L65 18.0213L76.18 53.8146L111.973 65L76.18 76.18L65 111.973L53.8146 76.18ZM65.0054 70.4167C67.9954 70.4167 70.4221 67.99 70.4221 65C70.4221 62.01 67.9954 59.5833 65.0054 59.5833C62.0154 59.5833 59.5887 62.01 59.5887 65C59.5887 67.99 62.0154 70.4167 65.0054 70.4167Z" fill="black"/>
<path fill-rule="evenodd" clip-rule="evenodd" d="M53.8146 76.18L18.0212 65L53.8146 53.8146L65 18.0213L76.18 53.8146L111.973 65L76.18 76.18L65 111.973L53.8146 76.18ZM65.0054 70.4167C67.9954 70.4167 70.4221 67.99 70.4221 65C70.4221 62.01 67.9954 59.5833 65.0054 59.5833C62.0154 59.5833 59.5887 62.01 59.5887 65C59.5887 67.99 62.0154 70.4167 65.0054 70.4167Z" fill="#333D42"/>
</g>
<defs>
<clipPath id="clip0_7_25">
<rect width="130" height="130" fill="white"/>
</clipPath>
</defs>
</svg>
